<?xml version="1.0" encoding="UTF-8"?>
<svg width="63px" height="61px" viewBox="0 0 63 61" version="1.1" xmlns="http://www.w3.org/2000/svg" xmlns:xlink="http://www.w3.org/1999/xlink">
    <title>МЭЛТОР</title>
    <desc>Автоматизация тендерного отдела</desc>
    <g id="Page-1" stroke="none" stroke-width="1" fill="none" fill-rule="evenodd">
        <g id="MELTOR---RED" fill="#005ABF">
            <path d="M22.45,13 L11.27,6.84 C10.55,7.42 9.85,8.04 9.16,8.7 C3.249234,14.2719327 -0.021505,22.0889998 0.16,30.21 C0.066514,35.726966 1.540246,41.157234 4.41,45.87 L22.45,13 Z" id="Path"></path>
            <path d="M53.85,8.7 C47.843333,2.9 40.393333,3.61581425e-17 31.5,3.61581425e-17 C28.784853,-0.0122233276 26.07723,0.28638693 23.43,0.89 L50.34,15.68 L45,25.38 L33.67,19.15 L13.76,55.41 C19.046104,58.8002388 25.221504,60.5407687 31.5,60.41 C40.386667,60.41 47.836667,57.51 53.85,51.71 C59.761266,46.1342502 63.031827,38.3139761 62.85,30.19 C63.028976,22.0694785 59.758649,14.253398 53.85,8.68" id="Path"></path>
        </g>
    </g>
</svg>